<svg id="Camada_1" data-name="Camada 1" xmlns="http://www.w3.org/2000/svg" viewBox="0 0 167.56 29.2"><defs><style>.cls-1{fill:#fff;}</style></defs><path class="cls-1" d="M21.15,9.82H16.48A4.55,4.55,0,0,0,16,8.21,4.08,4.08,0,0,0,15,7a4.48,4.48,0,0,0-1.43-.77A5.38,5.38,0,0,0,11.78,6a5.12,5.12,0,0,0-2.95.85A5.34,5.34,0,0,0,6.88,9.23a9.69,9.69,0,0,0-.69,3.86A9.83,9.83,0,0,0,6.88,17a5.31,5.31,0,0,0,2,2.4,5.26,5.26,0,0,0,2.91.81A5.59,5.59,0,0,0,13.47,20a4.45,4.45,0,0,0,1.41-.71,4.24,4.24,0,0,0,1-1.16,4.75,4.75,0,0,0,.57-1.56l4.67,0a8.45,8.45,0,0,1-.91,2.9,8.62,8.62,0,0,1-1.93,2.48,9.05,9.05,0,0,1-2.87,1.73,10.55,10.55,0,0,1-3.76.63A10.28,10.28,0,0,1,6.46,23a9.39,9.39,0,0,1-3.63-3.83,12.85,12.85,0,0,1-1.32-6.06A12.63,12.63,0,0,1,2.86,7,9.33,9.33,0,0,1,6.5,3.2a10.21,10.21,0,0,1,5.18-1.32,11,11,0,0,1,3.51.54A8.84,8.84,0,0,1,18.08,4a7.93,7.93,0,0,1,2,2.48A9.18,9.18,0,0,1,21.15,9.82ZM29,24.31a6.89,6.89,0,0,1-2.8-.54,4.53,4.53,0,0,1-1.93-1.63,4.9,4.9,0,0,1-.71-2.71,4.82,4.82,0,0,1,.5-2.29,4,4,0,0,1,1.37-1.49,6.43,6.43,0,0,1,2-.85,14.21,14.21,0,0,1,2.32-.41c.95-.1,1.72-.19,2.3-.28a3.2,3.2,0,0,0,1.27-.4.9.9,0,0,0,.39-.79v-.06a2,2,0,0,0-.64-1.57,2.61,2.61,0,0,0-1.79-.55,3.22,3.22,0,0,0-2,.54,2.44,2.44,0,0,0-.95,1.34l-4.2-.34A5.77,5.77,0,0,1,25.43,9.7,6.13,6.13,0,0,1,27.85,8a9.25,9.25,0,0,1,3.46-.6,10.72,10.72,0,0,1,2.61.32,7.12,7.12,0,0,1,2.22,1,4.86,4.86,0,0,1,1.55,1.73,5.27,5.27,0,0,1,.56,2.5V24H34V21.73h-.13a4.59,4.59,0,0,1-1.06,1.35,4.71,4.71,0,0,1-1.58.91A6.64,6.64,0,0,1,29,24.31Zm1.3-3.13a3.71,3.71,0,0,0,1.76-.4,3.1,3.1,0,0,0,1.21-1.08,2.83,2.83,0,0,0,.43-1.55V16.41a2.12,2.12,0,0,1-.58.26c-.24.07-.52.14-.82.2l-.92.16-.83.12a5.61,5.61,0,0,0-1.39.37,2.17,2.17,0,0,0-.93.7,1.85,1.85,0,0,0,.34,2.48A2.92,2.92,0,0,0,30.34,21.18Zm16-6.64V24H41.77V7.64H46.1v2.88h.19a4.6,4.6,0,0,1,1.82-2.26,5.53,5.53,0,0,1,3.1-.84,5.7,5.7,0,0,1,3,.75,5,5,0,0,1,2,2.13,7.12,7.12,0,0,1,.71,3.28V24H52.32V14.39a3.26,3.26,0,0,0-.77-2.34,2.75,2.75,0,0,0-2.14-.86,3.3,3.3,0,0,0-1.62.4,2.82,2.82,0,0,0-1.09,1.15A4.12,4.12,0,0,0,46.31,14.54Zm21.58,9.78a8.8,8.8,0,0,1-4.35-1,7.14,7.14,0,0,1-2.79-2.92,9.72,9.72,0,0,1-1-4.49,9.61,9.61,0,0,1,1-4.43,7.33,7.33,0,0,1,2.76-3,8.1,8.1,0,0,1,4.2-1.07,8.56,8.56,0,0,1,3,.53,6.74,6.74,0,0,1,2.45,1.54,7.09,7.09,0,0,1,1.64,2.6,10.34,10.34,0,0,1,.58,3.64V17H61.58V14.17h9.55a3.4,3.4,0,0,0-.43-1.74,3,3,0,0,0-1.18-1.18,3.37,3.37,0,0,0-1.73-.44,3.53,3.53,0,0,0-1.84.48,3.41,3.41,0,0,0-1.23,1.27,3.58,3.58,0,0,0-.46,1.76V17a4.58,4.58,0,0,0,.45,2.1A3.2,3.2,0,0,0,66,20.45a3.86,3.86,0,0,0,2,.48,4.34,4.34,0,0,0,1.38-.21,2.93,2.93,0,0,0,1.08-.64,2.77,2.77,0,0,0,.68-1l4.2.27A5.78,5.78,0,0,1,74,22a6.59,6.59,0,0,1-2.54,1.75A9.6,9.6,0,0,1,67.89,24.32Zm21.29,5.82V21.38H89a5.93,5.93,0,0,1-.91,1.35,4.43,4.43,0,0,1-1.5,1.1,5.2,5.2,0,0,1-2.24.44,6.16,6.16,0,0,1-3.37-1,6.71,6.71,0,0,1-2.39-2.85,11,11,0,0,1-.87-4.62,10.76,10.76,0,0,1,.9-4.68,6.56,6.56,0,0,1,2.41-2.8,6.21,6.21,0,0,1,3.31-.94,5,5,0,0,1,2.29.47A4.54,4.54,0,0,1,88.17,9,6.08,6.08,0,0,1,89,10.38h.19V7.64H93.7v22.5Zm-3.35-9.49a2.92,2.92,0,0,0,1.86-.59,3.81,3.81,0,0,0,1.17-1.7,7.23,7.23,0,0,0,.41-2.54,7.24,7.24,0,0,0-.4-2.54,3.68,3.68,0,0,0-1.17-1.66A3,3,0,0,0,85.83,11a3,3,0,0,0-1.88.61,3.66,3.66,0,0,0-1.16,1.69,7,7,0,0,0-.4,2.49,7.24,7.24,0,0,0,.4,2.52A3.75,3.75,0,0,0,84,20.05,3,3,0,0,0,85.83,20.65Zm22-3.62V7.64h4.54V24H108V21h-.17A4.81,4.81,0,0,1,106,23.34a5.4,5.4,0,0,1-3.12.87,5.57,5.57,0,0,1-2.89-.74,5.2,5.2,0,0,1-2-2.12,7.43,7.43,0,0,1-.7-3.29V7.64h4.54v9.61a3.29,3.29,0,0,0,.77,2.29,2.67,2.67,0,0,0,2.06.84,3.21,3.21,0,0,0,1.53-.38,2.88,2.88,0,0,0,1.15-1.12A3.45,3.45,0,0,0,107.84,17Zm15.63,7.29a8.77,8.77,0,0,1-4.35-1,7,7,0,0,1-2.79-2.92,9.72,9.72,0,0,1-1-4.49,9.61,9.61,0,0,1,1-4.43,7.2,7.2,0,0,1,2.76-3,8,8,0,0,1,4.2-1.07,8.46,8.46,0,0,1,3,.53,6.58,6.58,0,0,1,2.45,1.54,7,7,0,0,1,1.64,2.6,10.33,10.33,0,0,1,.59,3.64V17H117.16V14.17h9.55a3.51,3.51,0,0,0-.43-1.74,3,3,0,0,0-1.18-1.18,3.41,3.41,0,0,0-1.74-.44,3.47,3.47,0,0,0-1.83.48,3.36,3.36,0,0,0-1.24,1.27,3.69,3.69,0,0,0-.46,1.76V17a4.58,4.58,0,0,0,.45,2.1,3.32,3.32,0,0,0,1.29,1.36,3.89,3.89,0,0,0,2,.48,4.36,4.36,0,0,0,1.39-.21,2.81,2.81,0,0,0,1.07-.64,2.65,2.65,0,0,0,.68-1l4.2.27A5.68,5.68,0,0,1,129.57,22,6.56,6.56,0,0,1,127,23.7,9.6,9.6,0,0,1,123.47,24.32ZM133.94,24V7.64h4.54V24Zm2.28-18.47a2.51,2.51,0,0,1-1.74-.67,2.21,2.21,0,0,1-.71-1.63,2.13,2.13,0,0,1,.71-1.61,2.43,2.43,0,0,1,1.74-.68,2.39,2.39,0,0,1,1.73.68,2.11,2.11,0,0,1,.72,1.61A2.18,2.18,0,0,1,138,4.86,2.47,2.47,0,0,1,136.22,5.53ZM142.11,24V7.64h4.4v2.85h.17a4.23,4.23,0,0,1,1.51-2.3,3.91,3.91,0,0,1,2.43-.79c.22,0,.47,0,.73,0a5.44,5.44,0,0,1,.69.12v4a5.08,5.08,0,0,0-.88-.17,8,8,0,0,0-1-.08,3.62,3.62,0,0,0-1.79.44A3.15,3.15,0,0,0,147.1,13a3.45,3.45,0,0,0-.45,1.77V24Zm18.91.32a8.3,8.3,0,0,1-4.29-1.06,7.16,7.16,0,0,1-2.78-3,9.44,9.44,0,0,1-1-4.42,9.43,9.43,0,0,1,1-4.43,7.1,7.1,0,0,1,2.78-3,9.12,9.12,0,0,1,8.57,0,7.14,7.14,0,0,1,2.8,3,9.55,9.55,0,0,1,1,4.43,9.56,9.56,0,0,1-1,4.42,7.2,7.2,0,0,1-2.8,3A8.24,8.24,0,0,1,161,24.32Zm0-3.52a2.83,2.83,0,0,0,1.89-.64,4,4,0,0,0,1.14-1.76,7.76,7.76,0,0,0,.39-2.55,7.76,7.76,0,0,0-.39-2.55,4,4,0,0,0-1.14-1.76,2.78,2.78,0,0,0-1.89-.65,2.82,2.82,0,0,0-1.91.65A4,4,0,0,0,158,13.3a8,8,0,0,0-.38,2.55A8,8,0,0,0,158,18.4a4,4,0,0,0,1.17,1.76A2.86,2.86,0,0,0,161,20.8Z" transform="translate(-1.51 -0.94)"/></svg>